<svg xmlns="http://www.w3.org/2000/svg" viewBox="0 0 32 32">
  <rect width="32" height="32" rx="7" fill="#0d100e"/>
  <path fill="#f2b32c" d="M22.9 13.6c.25-.7.35-1.4.35-2.15C23.25 8 20.4 5 16.9 5c-3.1 0-5.7 2.2-6.3 5.2-.85-.1-1.7-.4-2.3-1.1-.25 1.45.25 2.8 1.2 3.65C7.5 14.2 6 16.5 6 18.8 6 22.9 10.4 25.5 15.9 25.5c5.3 0 9.9-2.8 10.6-9.1-1.6 1.1-3.75 1.3-5.6.8z"/>
  <circle cx="18.7" cy="9.8" r="1.2" fill="#0d100e"/>
  <path fill="#f2b32c" d="M23.15 10.1c1.35-.25 2.7.15 3.4 1.1-.85.75-2.2 1-3.55.75z"/>
</svg>
